HIERARCHY
ROOT joint_Root
{
  OFFSET 0 0 0
  CHANNELS 6 Xposition Yposition Zposition Zrotation Xrotation Yrotation
  JOINT Hips
  {
    OFFSET 0 93.9241 -3
    CHANNELS 6 Xposition Yposition Zposition Zrotation Xrotation Yrotation
    JOINT Spine
    {
      OFFSET 15.7357 0 0
      CHANNELS 6 Xposition Yposition Zposition Zrotation Xrotation Yrotation
      JOINT Chest
      {
        OFFSET 8.98455 -0.406207 0
        CHANNELS 6 Xposition Yposition Zposition Zrotation Xrotation Yrotation
        JOINT Neck
        {
          OFFSET 16.3773 0 0
          CHANNELS 6 Xposition Yposition Zposition Zrotation Xrotation Yrotation
          JOINT Head
          {
            OFFSET 6.45672 0 0
            CHANNELS 6 Xposition Yposition Zposition Zrotation Xrotation Yrotation
            End Site
            {
              OFFSET 0 0 0
            }
          }
        }
        JOINT Shoulder_L
        {
          OFFSET 12.9942 -0.242716 4.98039
          CHANNELS 6 Xposition Yposition Zposition Zrotation Xrotation Yrotation
          JOINT UpperArm_L
          {
            OFFSET 5.34809 0 0
            CHANNELS 6 Xposition Yposition Zposition Zrotation Xrotation Yrotation
            JOINT LowerArm_L
            {
              OFFSET 24.3286 1.87007e-05 0
              CHANNELS 6 Xposition Yposition Zposition Zrotation Xrotation Yrotation
              JOINT Hand_L
              {
                OFFSET 22.2916 0 0
                CHANNELS 6 Xposition Yposition Zposition Zrotation Xrotation Yrotation
                End Site
                {
                  OFFSET 0 0 0
                }
              }
            }
          }
        }
        JOINT Shoulder_R
        {
          OFFSET 12.9945 -0.242716 -4.98039
          CHANNELS 6 Xposition Yposition Zposition Zrotation Xrotation Yrotation
          JOINT UpperArm_R
          {
            OFFSET -5.34813 0 0
            CHANNELS 6 Xposition Yposition Zposition Zrotation Xrotation Yrotation
            JOINT LowerArm_R
            {
              OFFSET -24.3289 0.000322201 0
              CHANNELS 6 Xposition Yposition Zposition Zrotation Xrotation Yrotation
              JOINT Hand_R
              {
                OFFSET -22.2915 -0.000108084 0
                CHANNELS 6 Xposition Yposition Zposition Zrotation Xrotation Yrotation
                End Site
                {
                  OFFSET 0 0 0
                }
              }
            }
          }
        }
      }
    }
    JOINT UpperLeg_L
    {
      OFFSET -2.19248 -6.46944 0
      CHANNELS 6 Xposition Yposition Zposition Zrotation Xrotation Yrotation
      JOINT LowerLeg_L
      {
        OFFSET 39.0811 0 -1.23785e-05
        CHANNELS 6 Xposition Yposition Zposition Zrotation Xrotation Yrotation
        JOINT Foot_L
        {
          OFFSET 40.9854 0 -1.26872e-05
          CHANNELS 6 Xposition Yposition Zposition Zrotation Xrotation Yrotation
          JOINT Toes_L
          {
            OFFSET 11.7543 0 0
            CHANNELS 6 Xposition Yposition Zposition Zrotation Xrotation Yrotation
            End Site
            {
              OFFSET 0 0 0
            }
          }
        }
      }
    }
    JOINT UpperLeg_R
    {
      OFFSET -2.19251 6.46944 0
      CHANNELS 6 Xposition Yposition Zposition Zrotation Xrotation Yrotation
      JOINT LowerLeg_R
      {
        OFFSET -39.0811 -0.00228153 -0.0401928
        CHANNELS 6 Xposition Yposition Zposition Zrotation Xrotation Yrotation
        JOINT Foot_R
        {
          OFFSET -40.9854 0 0
          CHANNELS 6 Xposition Yposition Zposition Zrotation Xrotation Yrotation
          JOINT Toes_R
          {
            OFFSET -11.7543 0 0
            CHANNELS 6 Xposition Yposition Zposition Zrotation Xrotation Yrotation
            End Site
            {
              OFFSET 0 0 0
            }
          }
        }
      }
    }
  }
}
MOTION
Frames:	9
Frame Time:	0.0333333
0 0 0 0 0 -0 -4.4737 90.8601 -1.7492 86.3544 -14.4045 5.1036 15.7357 5.1072e-06 -5.51765e-07 143.53 82.0504 -144.581 8.98455 -0.406207 -4.3199e-07 1.85091 12.8325 -2.31502 16.3773 -1.3905e-06 -6.99897e-07 -2.24429 -9.84397 10.6668 6.45672 -1.25837e-06 -1.02172e-07 10.021 -18.5927 16.2554 12.9942 -0.242716 4.98039 -90.1813 0.77542 -91.8434 5.34809 -7.22636e-06 -6.2814e-07 -75.4453 -3.73618 -0.740898 24.3286 1.87007e-05 4.90208e-06 3.56173 13.1689 -15.2804 22.2916 -9.88446e-07 4.63217e-06 2.80481 5.10873 4.91264 12.9945 -0.242716 -4.98039 89.668 -12.4947 -106.534 -5.34813 -1.25947e-06 -3.79883e-06 -34.1928 -21.2466 -59.2673 -24.3289 0.000322201 -8.65921e-06 5.82874 41.5899 -8.75109 -22.2915 -0.000108084 -4.47941e-06 52.6135 5.75927 -21.3859 -2.19248 -6.46944 -1.22534e-07 -172.846 -0.957894 -6.76457 39.0811 -6.73843e-06 -1.23785e-05 0.0241445 -0.0244659 32.5484 40.9854 -6.48686e-06 -1.26872e-05 -3.24389 -1.15184 -70.0665 11.7543 -2.30145e-07 3.05095e-06 -0.0532908 0.042426 -16.5752 -2.19251 6.46944 -1.45247e-06 -172.542 16.7199 -178.74 -39.0811 -0.00228153 -0.0401928 0.0889046 -0.152565 22.6861 -40.9854 7.72618e-06 5.99936e-06 3.762 -8.03075 -69.7083 -11.7543 -5.6619e-06 -5.58687e-06 -0.117912 0.077517 -16.573 
0 0 0 0 0 -0 -4.42937 90.8909 -1.74819 86.3807 -13.8921 4.77038 15.7357 5.1072e-06 -5.51765e-07 144.492 82.2099 -145.621 8.98455 -0.406207 -4.3199e-07 1.45028 12.7389 -2.42506 16.3773 -1.3905e-06 -6.99897e-07 -2.24998 -9.99684 10.7909 6.45672 -1.25837e-06 -1.02172e-07 10.453 -18.5998 16.4126 12.9942 -0.242716 4.98039 -90.3407 1.46207 -91.8815 5.34809 -7.22636e-06 -6.2814e-07 -74.7938 -3.83521 -0.404633 24.3286 1.87007e-05 4.90208e-06 4.02061 13.8 -16.4181 22.2916 -9.88446e-07 4.63217e-06 3.98361 5.11033 4.877 12.9945 -0.242716 -4.98039 89.6218 -13.3676 -106.635 -5.34813 -1.25947e-06 -3.79883e-06 -70.0012 -32.3165 -71.2758 -24.3289 0.000322201 -8.65921e-06 5.28652 16.3299 -18.556 -22.2915 -0.000108084 -4.47941e-06 44.4838 5.20182 2.10778 -2.19248 -6.46944 -1.22534e-07 -172.932 -0.612925 -7.17332 39.0811 -6.73843e-06 -1.23785e-05 0.0196469 -0.0176716 32.4316 40.9854 -6.48686e-06 -1.26872e-05 -3.18596 -1.082 -69.936 11.7543 -2.30145e-07 3.05095e-06 -0.0671234 0.0537571 -16.5745 -2.19251 6.46944 -1.45247e-06 -172.389 16.5395 -179.079 -39.0811 -0.00228153 -0.0401928 0.0895362 -0.156422 22.5032 -40.9854 7.72618e-06 5.99936e-06 3.62543 -8.60469 -69.5929 -11.7543 -5.6619e-06 -5.58687e-06 -0.11932 0.0780143 -16.573 
0 0 0 0 0 -0 -4.3825 90.9286 -1.70466 86.4186 -13.1863 4.39574 15.7357 5.1072e-06 -5.51765e-07 144.892 82.4597 -146.06 8.98455 -0.406207 -4.3199e-07 1.06715 12.4003 -2.45757 16.3773 -1.3905e-06 -6.99897e-07 -2.3594 -10.0521 10.4265 6.45672 -1.25837e-06 -1.02172e-07 10.6283 -18.4306 16.5839 12.9942 -0.242716 4.98039 -90.4113 1.81218 -92.2115 5.34809 -7.22636e-06 -6.2814e-07 -74.6584 -4.3016 0.554489 24.3286 1.87007e-05 4.90208e-06 4.4574 13.7249 -18.1883 22.2916 -9.88446e-07 4.63217e-06 5.60342 5.13323 4.34476 12.9945 -0.242716 -4.98039 89.4426 -13.1829 -107.443 -5.34813 -1.25947e-06 -3.79883e-06 -82.2712 -33.3225 -73.939 -24.3289 0.000322201 -8.65921e-06 -16.2945 -24.5221 -35.1216 -22.2915 -0.000108084 -4.47941e-06 77.214 5.2551 0.588245 -2.19248 -6.46944 -1.22534e-07 -173.039 -0.143559 -7.60406 39.0811 -6.73843e-06 -1.23785e-05 0.0180754 -0.0151814 32.268 40.9854 -6.48686e-06 -1.26872e-05 -3.08849 -0.904928 -69.8 11.7543 -2.30145e-07 3.05095e-06 -0.064288 0.0519201 -16.5745 -2.19251 6.46944 -1.45247e-06 -172.259 16.4967 -179.408 -39.0811 -0.00228153 -0.0401928 0.0871259 -0.153941 22.2421 -40.9854 7.72618e-06 5.99936e-06 3.45877 -9.23302 -69.4759 -11.7543 -5.6619e-06 -5.58687e-06 -0.114117 0.073971 -16.5731 
0 0 0 0 0 -0 -4.32303 90.9417 -1.64791 86.4367 -12.7412 4.23705 15.7357 5.1072e-06 -5.51765e-07 144.25 82.7462 -145.362 8.98455 -0.406207 -4.3199e-07 0.852297 11.8369 -2.31638 16.3773 -1.3905e-06 -6.99897e-07 -2.12922 -9.92914 10.0137 6.45672 -1.25837e-06 -1.02172e-07 10.181 -17.8756 16.272 12.9942 -0.242716 4.98039 -90.3858 1.7679 -92.6886 5.34809 -7.22636e-06 -6.2814e-07 -75.1415 -4.65862 1.82805 24.3286 1.87007e-05 4.90208e-06 4.58978 12.8436 -19.857 22.2916 -9.88446e-07 4.63217e-06 6.63179 5.15484 3.82832 12.9945 -0.242716 -4.98039 89.6758 -12.8541 -106.458 -5.34813 -1.25947e-06 -3.79883e-06 -69.4156 -29.89 -65.5688 -24.3289 0.000322201 -8.65921e-06 -13.6513 -19.052 -36.7053 -22.2915 -0.000108084 -4.47941e-06 56.5896 5.1811 3.40395 -2.19248 -6.46944 -1.22534e-07 -173.09 0.025784 -7.80612 39.0811 -6.73843e-06 -1.23785e-05 0.0144317 -0.0089165 32.2183 40.9854 -6.48686e-06 -1.26872e-05 -2.97445 -0.659707 -69.752 11.7543 -2.30145e-07 3.05095e-06 -0.0710579 0.0577184 -16.5742 -2.19251 6.46944 -1.45247e-06 -172.215 16.4222 -179.557 -39.0811 -0.00228153 -0.0401928 0.0861195 -0.152373 22.1595 -40.9854 7.72618e-06 5.99936e-06 3.30069 -9.69508 -69.4554 -11.7543 -5.6619e-06 -5.58687e-06 -0.115823 0.0746709 -16.573 
0 0 0 0 0 -0 -4.20895 90.9576 -1.56527 86.4607 -13.012 4.34466 15.7357 5.1072e-06 -5.51765e-07 143.33 82.747 -144.495 8.98455 -0.406207 -4.3199e-07 1.04548 11.6989 -2.44153 16.3773 -1.3905e-06 -6.99897e-07 -2.66519 -9.7322 10.3337 6.45672 -1.25837e-06 -1.02172e-07 10.2761 -17.5079 15.732 12.9942 -0.242716 4.98039 -90.2552 1.13774 -92.3573 5.34809 -7.22636e-06 -6.2814e-07 -75.9131 -3.67928 1.57531 24.3286 1.87007e-05 4.90208e-06 4.42215 12.2826 -19.9773 22.2916 -9.88446e-07 4.63217e-06 6.38314 5.16839 3.49981 12.9945 -0.242716 -4.98039 89.6418 -12.7432 -106.623 -5.34813 -1.25947e-06 -3.79883e-06 -42.936 -22.3919 -49.8815 -24.3289 0.000322201 -8.65921e-06 8.11206 9.7386 -40.1602 -22.2915 -0.000108084 -4.47941e-06 32.9947 5.45092 -3.88964 -2.19248 -6.46944 -1.22534e-07 -173.191 -0.291081 -7.558 39.0811 -6.73843e-06 -1.23785e-05 0.0191839 -0.0162242 32.1301 40.9854 -6.48686e-06 -1.26872e-05 -2.85812 -0.627678 -69.7771 11.7543 -2.30145e-07 3.05095e-06 -0.0659168 0.0533572 -16.5744 -2.19251 6.46944 -1.45247e-06 -172.389 16.2725 -179.393 -39.0811 -0.00228153 -0.0401928 0.082826 -0.144217 22.1737 -40.9854 7.72618e-06 5.99936e-06 3.2202 -9.57154 -69.461 -11.7543 -5.6619e-06 -5.58687e-06 -0.116045 0.0750715 -16.573 
0 0 0 0 0 -0 -4.09883 90.9337 -1.52493 86.4336 -13.4726 4.64142 15.7357 5.1072e-06 -5.51765e-07 142.677 82.5064 -143.811 8.98455 -0.406207 -4.3199e-07 1.47652 11.9747 -2.42757 16.3773 -1.3905e-06 -6.99897e-07 -2.97012 -9.52245 9.95835 6.45672 -1.25837e-06 -1.02172e-07 9.8291 -17.5191 15.6415 12.9942 -0.242716 4.98039 -90.176 0.777356 -92.244 5.34809 -7.22636e-06 -6.2814e-07 -76.2035 -2.2869 0.557143 24.3286 1.87007e-05 4.90208e-06 4.18187 12.2881 -18.96 22.2916 -9.88446e-07 4.63217e-06 4.41787 5.16683 3.54158 12.9945 -0.242716 -4.98039 89.8087 -11.1292 -105.991 -5.34813 -1.25947e-06 -3.79883e-06 -14.5805 -8.81138 -48.4452 -24.3289 0.000322201 -8.65921e-06 14.7866 33.9045 -25.4683 -22.2915 -0.000108084 -4.47941e-06 72.7051 5.68121 -26.3853 -2.19248 -6.46944 -1.22534e-07 -173.206 -0.688237 -7.20234 39.0811 -6.73843e-06 -1.23785e-05 0.0224843 -0.0205889 32.2587 40.9854 -6.48686e-06 -1.26872e-05 -2.78233 -0.629 -69.9097 11.7543 -2.30145e-07 3.05095e-06 -0.0626777 0.0505157 -16.5746 -2.19251 6.46944 -1.45247e-06 -172.585 16.2542 -179.148 -39.0811 -0.00228153 -0.0401928 0.0835847 -0.143008 22.4384 -40.9854 7.72618e-06 5.99936e-06 3.21145 -9.17937 -69.5795 -11.7543 -5.6619e-06 -5.58687e-06 -0.114012 0.0741335 -16.573 
0 0 0 0 0 -0 -4.03335 90.9264 -1.52122 86.4848 -13.791 4.98145 15.7357 5.1072e-06 -5.51765e-07 142.751 82.2443 -143.941 8.98455 -0.406207 -4.3199e-07 1.79668 12.4022 -2.58107 16.3773 -1.3905e-06 -6.99897e-07 -2.75836 -9.44144 10.1506 6.45672 -1.25837e-06 -1.02172e-07 9.1444 -17.7074 15.2154 12.9942 -0.242716 4.98039 -90.1811 0.794003 -92.154 5.34809 -7.22636e-06 -6.2814e-07 -75.7614 -1.02526 -0.557897 24.3286 1.87007e-05 4.90208e-06 4.07613 12.9156 -17.684 22.2916 -9.88446e-07 4.63217e-06 2.69192 5.13465 4.31059 12.9945 -0.242716 -4.98039 89.7946 -11.7292 -106.01 -5.34813 -1.25947e-06 -3.79883e-06 -15.6621 -9.86994 -51.067 -24.3289 0.000322201 -8.65921e-06 10.4875 41.7592 -15.5365 -22.2915 -0.000108084 -4.47941e-06 50.2456 5.83775 -20.0279 -2.19248 -6.46944 -1.22534e-07 -173.266 -1.05438 -6.81835 39.0811 -6.73843e-06 -1.23785e-05 0.0249201 -0.024162 32.2686 40.9854 -6.48686e-06 -1.26872e-05 -2.71483 -0.585567 -69.9374 11.7543 -2.30145e-07 3.05095e-06 -0.0670405 0.0538401 -16.5744 -2.19251 6.46944 -1.45247e-06 -172.821 16.2666 -178.871 -39.0811 -0.00228153 -0.0401928 0.0835373 -0.140585 22.622 -40.9854 7.72618e-06 5.99936e-06 3.20746 -8.92157 -69.6481 -11.7543 -5.6619e-06 -5.58687e-06 -0.118014 0.076998 -16.5731 
0 0 0 0 0 -0 -3.95099 90.961 -1.58141 86.527 -13.8872 4.87477 15.7357 5.1072e-06 -5.51765e-07 143.458 82.1887 -144.779 8.98455 -0.406207 -4.3199e-07 1.72706 12.6144 -2.83877 16.3773 -1.3905e-06 -6.99897e-07 -2.82893 -9.42655 10.238 6.45672 -1.25837e-06 -1.02172e-07 9.45614 -17.8499 15.7927 12.9942 -0.242716 4.98039 -90.3107 1.32827 -91.8357 5.34809 -7.22636e-06 -6.2814e-07 -74.87 -0.860404 -1.21152 24.3286 1.87007e-05 4.90208e-06 4.18439 14.1184 -16.6962 22.2916 -9.88446e-07 4.63217e-06 2.85045 5.11264 4.82217 12.9945 -0.242716 -4.98039 89.5465 -12.3369 -107.122 -5.34813 -1.25947e-06 -3.79883e-06 -52.379 -30.449 -60.916 -24.3289 0.000322201 -8.65921e-06 9.04174 28.8302 -18.3189 -22.2915 -0.000108084 -4.47941e-06 23.664 4.77128 10.2058 -2.19248 -6.46944 -1.22534e-07 -173.333 -1.24127 -6.89725 39.0811 -6.73843e-06 -1.23785e-05 0.0217747 -0.0193676 32.1099 40.9854 -6.48686e-06 -1.26872e-05 -2.64744 -0.530098 -69.8029 11.7543 -2.30145e-07 3.05095e-06 -0.069143 0.0554349 -16.5743 -2.19251 6.46944 -1.45247e-06 -172.869 16.2117 -179.011 -39.0811 -0.00228153 -0.0401928 0.0829025 -0.140186 22.5493 -40.9854 7.72618e-06 5.99936e-06 3.20814 -8.84509 -69.5332 -11.7543 -5.6619e-06 -5.58687e-06 -0.117862 0.0770051 -16.5729 
0 0 0 0 0 -0 -3.91633 90.9891 -1.61039 86.5573 -13.4238 4.49888 15.7357 5.1072e-06 -5.51765e-07 144.468 82.2946 -145.9 8.98455 -0.406207 -4.3199e-07 1.38837 12.6152 -3.02454 16.3773 -1.3905e-06 -6.99897e-07 -2.92515 -9.47667 9.96325 6.45672 -1.25837e-06 -1.02172e-07 9.66851 -18.0797 16.4821 12.9942 -0.242716 4.98039 -90.4167 1.77692 -91.7997 5.34809 -7.22636e-06 -6.2814e-07 -74.2525 -1.71871 -1.06219 24.3286 1.87007e-05 4.90208e-06 4.35753 14.8548 -16.553 22.2916 -9.88446e-07 4.63217e-06 4.40785 5.10933 4.89869 12.9945 -0.242716 -4.98039 89.5158 -12.7267 -107.197 -5.34813 -1.25947e-06 -3.79883e-06 -86.7115 -36.4398 -76.1097 -24.3289 0.000322201 -8.65921e-06 -4.39432 -9.5869 -24.868 -22.2915 -0.000108084 -4.47941e-06 67.6089 5.16868 4.84104 -2.19248 -6.46944 -1.22534e-07 -173.43 -0.773804 -7.35118 39.0811 -6.73843e-06 -1.23785e-05 0.0183422 -0.0141524 31.9986 40.9854 -6.48686e-06 -1.26872e-05 -2.63522 -0.561598 -69.6753 11.7543 -2.30145e-07 3.05095e-06 -0.0760647 0.0613658 -16.574 -2.19251 6.46944 -1.45247e-06 -172.776 16.351 -179.408 -39.0811 -0.00228153 -0.0401928 0.0836539 -0.143606 22.4046 -40.9854 7.72618e-06 5.99936e-06 3.14575 -9.09579 -69.4408 -11.7543 -5.6619e-06 -5.58687e-06 -0.11302 0.073398 -16.5731 
